<svg width="20" height="20" viewBox="0 0 20 20" fill="none" xmlns="http://www.w3.org/2000/svg">
<path fill-rule="evenodd" clip-rule="evenodd" d="M2.08325 4.58203C2.08325 2.51097 3.76218 0.832031 5.83325 0.832031C7.90432 0.832031 9.58325 2.51097 9.58325 4.58203C9.58325 6.6531 7.90432 8.33203 5.83325 8.33203C3.76218 8.33203 2.08325 6.6531 2.08325 4.58203ZM5.83325 2.4987C4.68266 2.4987 3.74992 3.43144 3.74992 4.58203C3.74992 5.73263 4.68266 6.66536 5.83325 6.66536C6.98385 6.66536 7.91658 5.73263 7.91658 4.58203C7.91658 3.43144 6.98385 2.4987 5.83325 2.4987ZM10.4166 4.58203C10.4166 2.51097 12.0955 0.832031 14.1666 0.832031C16.2377 0.832031 17.9166 2.51097 17.9166 4.58203C17.9166 6.6531 16.2377 8.33203 14.1666 8.33203C12.0955 8.33203 10.4166 6.6531 10.4166 4.58203ZM14.1666 2.4987C13.016 2.4987 12.0833 3.43144 12.0833 4.58203C12.0833 5.73263 13.016 6.66536 14.1666 6.66536C15.3172 6.66536 16.2499 5.73263 16.2499 4.58203C16.2499 3.43144 15.3172 2.4987 14.1666 2.4987ZM2.49992 14.582C2.49992 12.6012 3.82621 11.2487 5.17538 11.2487H7.28063C7.84717 11.2487 8.33645 11.5283 8.72176 11.8743C8.90986 12.0432 9.05676 12.2139 9.15585 12.3417C9.20494 12.405 9.24104 12.4562 9.26342 12.4891C9.27457 12.5056 9.28221 12.5173 9.28626 12.5237L9.28943 12.5287C9.49757 12.8684 9.91056 13.0067 10.2727 12.8808C10.3362 12.8588 10.3962 12.8294 10.4517 12.7935C10.569 12.7179 10.6612 12.6174 10.7256 12.5032L10.7398 12.4815C10.761 12.4494 10.7961 12.3987 10.8442 12.3354C10.9413 12.2077 11.0853 12.0371 11.2693 11.8684C11.6481 11.5208 12.1193 11.2487 12.6523 11.2487H14.7826C16.1632 11.2487 17.4998 12.6111 17.4998 14.582V18.332C17.4998 18.7923 17.8729 19.1654 18.3332 19.1654C18.7934 19.1654 19.1665 18.7923 19.1665 18.332V14.582C19.1665 11.9507 17.3238 9.58203 14.7826 9.58203H12.6523C11.5348 9.58203 10.6782 10.1489 10.1426 10.6402C10.0906 10.6879 10.0409 10.7355 9.9936 10.7826C9.94344 10.7336 9.89069 10.684 9.83539 10.6343C9.28656 10.1414 8.41616 9.58203 7.28063 9.58203H5.17538C2.64882 9.58203 0.833252 11.9606 0.833252 14.582V18.332C0.833252 18.7923 1.20635 19.1654 1.66659 19.1654C2.12682 19.1654 2.49992 18.7923 2.49992 18.332V14.582ZM6.39352 17.4987L6.56333 17.6706C6.88681 17.9979 6.88364 18.5256 6.55626 18.849C6.22887 19.1725 5.70125 19.1694 5.37777 18.842L4.85311 18.311L3.80378 17.249C3.48115 16.9225 3.48331 16.3966 3.80862 16.0727L5.38261 14.5058C5.70877 14.1811 6.23641 14.1823 6.56112 14.5084C6.88583 14.8346 6.88465 15.3622 6.55849 15.6869L6.41273 15.832H13.8362L13.6986 15.6936C13.3742 15.3671 13.3758 14.8395 13.7022 14.5151C14.0287 14.1906 14.5563 14.1922 14.8807 14.5187L15.3972 15.0383L16.4302 16.0776C16.7502 16.3996 16.7536 16.9184 16.4379 17.2446L15.405 18.3119L14.8885 18.8456C14.5684 19.1763 14.0408 19.1849 13.7101 18.8648C13.3794 18.5448 13.3708 18.0172 13.6909 17.6865L13.8726 17.4987H6.39352Z" fill="white"/>
</svg>
